<svg xmlns="http://www.w3.org/2000/svg" xmlns:xlink="http://www.w3.org/1999/xlink" viewBox="0 0 512 512"><defs><clipPath id="b"><rect width="512" height="512"/></clipPath></defs><g id="a" clip-path="url(#b)"><g transform="translate(-70 -58)"><circle cx="239.016" cy="239.016" r="239.016" transform="translate(-12 326.021) rotate(-45)" fill="#dadada" stroke="#707070" stroke-linejoin="round" stroke-width="3"/><path d="M313.271,341.533a19.121,19.121,0,0,1-8.68-12.957c-1.635-8.932-1.887-20.882-2.013-28.053a71.076,71.076,0,0,0,15.976-36.481c.377-2.39.755-5.409,1.132-8.68s1.132-9.938,1.761-14.718a11.825,11.825,0,0,0,5.787,1.761h0c3.145,0,6.164-1.51,9.057-4.4a25.034,25.034,0,0,0,7.045-16.731c.252-6.919,1.258-16.731,4.529-24.153a42.016,42.016,0,0,0,3.271-16.605c.126-8.177-1.635-12.58-5.409-12.957a9.058,9.058,0,0,0-4.529,1.258,17.618,17.618,0,0,0-2.139,1.132l2.264-7.422a228.19,228.19,0,0,0,6.164-25.914c2.013-11.2,4.151-22.644,2.893-34.091-4.277-36.1-22.392-37.11-18.87-38.746s10.567.629,10.567.629c-15.222-33.84-45.539-32.833-45.539-32.833,2.893-3.774,11.573-3.4,11.573-3.4-11.448-9.686-25.789-5.787-25.789-5.787,3.9-7.3,21.386-6.919,21.386-6.919-15.1-7.548-37.362,0-37.362,0,0-5.409,9.938-8.932,9.938-8.932-9.812-1.384-29.94,2.39-30.443,2.516,3.522-6.919,11.7-8.177,11.7-8.177-24.782-5.158-51.577,15.1-51.577,15.1.755-3.019,7.3-8.554,7.3-8.554A66.3,66.3,0,0,0,175.4,28.548a97.493,97.493,0,0,0-41.262,18.87c9.183-4.78,16.605-2.013,16.605-2.013-14.089.5-31.072,25.789-31.072,25.789a21.26,21.26,0,0,1,7.674-4.151c-13.335,11.448-14.718,42.9-14.718,42.9,1.887-7.925,7.3-8.68,7.3-8.68-10.693,10.567-5.158,46.8.126,66.673a8.932,8.932,0,0,0-2.642-.377c-3.648.377-5.535,4.78-5.409,12.957a44.407,44.407,0,0,0,3.4,16.605c3.145,7.422,4.151,17.234,4.529,24.153A25.034,25.034,0,0,0,126.964,238c4.655,4.78,9.812,5.661,14.718,2.642.755,4.78,1.384,10.064,1.887,14.718s.755,6.29,1.006,8.68A71.705,71.705,0,0,0,160.552,300.4c-.126,7.17-.377,19.247-2.013,28.179a18.744,18.744,0,0,1-8.68,12.957c-6.793,4.277-76.234,31.827-119.76,51.829l.377.5a239.142,239.142,0,0,0,402.05-.629h0C389.127,373.234,320.064,345.81,313.271,341.533Z" transform="translate(94.715 61.801)" fill="#898989" stroke="#707070" stroke-linejoin="round" stroke-width="3"/></g></g></svg>