<svg xmlns="http://www.w3.org/2000/svg" xmlns:xlink="http://www.w3.org/1999/xlink" width="512" height="512" viewBox="0 0 512 512"><defs><clipPath id="b"><rect width="512" height="512"/></clipPath></defs><g id="a" clip-path="url(#b)"><circle cx="237.186" cy="237.186" r="237.186" transform="translate(-79.5 269.774) rotate(-45)" fill="#dadada" stroke="#707070" stroke-width="3"/><path d="M90.025,377C67.68,384.118,48.955,391.109,33.6,399.223a237.31,237.31,0,0,0,390.357,0c-13.232-6.991-29.086-13.232-47.687-19.474,2-31.583,21.971-64.914,12.858-90.5-30.584-86.635-28.587-161.286-28.712-162.659C354.05,85.389,335.2,65.041,335.2,65.041,284.642-24.59,215.484,4.5,215.484,4.5s-40.322-18.975-84.263,67.66c0,0-26.34,33.955-19.349,125.084a203.482,203.482,0,0,1-6.117,37.325c-6.367,24.218-32.831,65.788-29.211,90.5C79.289,344.3,86.4,363.146,90.025,377Z" transform="translate(26.9 5.354)" fill="#898989" stroke="#707070" stroke-width="3"/></g></svg>