<?xml version="1.0" encoding="UTF-8"?> <svg xmlns="http://www.w3.org/2000/svg" width="380" height="401.8" viewBox="0 0 380 401.8"><defs><style>.cls-1{fill:#dadada;}.cls-2{fill:#898989;}</style></defs><title>Element 1</title><g id="Ebene_2" data-name="Ebene 2"><g id="Ńëîé_1" data-name="Ńëîé 1"><circle class="cls-1" cx="190" cy="211.8" r="190" transform="translate(-94.2 196.4) rotate(-45)"></circle><path class="cls-2" d="M78.8,302c-17.9,5.7-32.9,11.3-45.2,17.8a190.1,190.1,0,0,0,312.7,0c-10.6-5.6-23.3-10.6-38.2-15.6,1.6-25.3,17.6-52,10.3-72.5-24.5-69.4-22.9-129.2-23-130.3-5.1-33-20.2-49.3-20.2-49.3C234.7-19.7,179.3,3.6,179.3,3.6S147-11.6,111.8,57.8c0,0-21.1,27.2-15.5,100.2a163,163,0,0,1-4.9,29.9c-5.1,19.4-26.3,52.7-23.4,72.5C70.2,275.8,75.9,290.9,78.8,302Z"></path></g></g></svg> 