<?xml version="1.0" encoding="UTF-8"?> <svg xmlns="http://www.w3.org/2000/svg" width="380" height="400" viewBox="0 0 380 400"><defs><style>.cls-1{fill:#dadada;}.cls-2{fill:#898989;}</style></defs><title>Element 2</title><g id="Ebene_2" data-name="Ebene 2"><g id="Ńëîé_1" data-name="Ńëîé 1"><circle class="cls-1" cx="190" cy="210" r="190" transform="translate(-92.8 195.9) rotate(-45)"></circle><path class="cls-2" d="M255.2,271.5a15.2,15.2,0,0,1-6.9-10.3c-1.3-7.1-1.5-16.6-1.6-22.3a56.5,56.5,0,0,0,12.7-29c.3-1.9.6-4.3.9-6.9s.9-7.9,1.4-11.7a9.4,9.4,0,0,0,4.6,1.4h0c2.5,0,4.9-1.2,7.2-3.5a19.9,19.9,0,0,0,5.6-13.3c.2-5.5,1-13.3,3.6-19.2a33.4,33.4,0,0,0,2.6-13.2c.1-6.5-1.3-10-4.3-10.3a7.2,7.2,0,0,0-3.6,1,14,14,0,0,0-1.7.9l1.8-5.9a181.4,181.4,0,0,0,4.9-20.6c1.6-8.9,3.3-18,2.3-27.1-3.4-28.7-17.8-29.5-15-30.8s8.4.5,8.4.5C266,24.3,241.9,25.1,241.9,25.1c2.3-3,9.2-2.7,9.2-2.7-9.1-7.7-20.5-4.6-20.5-4.6,3.1-5.8,17-5.5,17-5.5-12-6-29.7,0-29.7,0,0-4.3,7.9-7.1,7.9-7.1-7.8-1.1-23.8,1.9-24.2,2,2.8-5.5,9.3-6.5,9.3-6.5-19.7-4.1-41,12-41,12,.6-2.4,5.8-6.8,5.8-6.8a52.7,52.7,0,0,0-30.1,16.8,77.5,77.5,0,0,0-32.8,15c7.3-3.8,13.2-1.6,13.2-1.6-11.2.4-24.7,20.5-24.7,20.5a16.9,16.9,0,0,1,6.1-3.3C96.8,62.4,95.7,87.4,95.7,87.4c1.5-6.3,5.8-6.9,5.8-6.9-8.5,8.4-4.1,37.2.1,53a7.1,7.1,0,0,0-2.1-.3c-2.9.3-4.4,3.8-4.3,10.3a35.3,35.3,0,0,0,2.7,13.2c2.5,5.9,3.3,13.7,3.6,19.2a19.9,19.9,0,0,0,5.6,13.3c3.7,3.8,7.8,4.5,11.7,2.1.6,3.8,1.1,8,1.5,11.7s.6,5,.8,6.9a57,57,0,0,0,12.7,28.9c-.1,5.7-.3,15.3-1.6,22.4a14.9,14.9,0,0,1-6.9,10.3c-5.4,3.4-60.6,25.3-95.2,41.2l.3.4a190.1,190.1,0,0,0,319.6-.5h0C315.5,296.7,260.6,274.9,255.2,271.5Z"></path></g></g></svg> 